<svg id="Graphic_Elements" data-name="Graphic Elements" xmlns="http://www.w3.org/2000/svg" viewBox="0 0 1200 1200"><path d="M980.09,123.8A114,114,0,0,0,880.52,104L536.42,196a115,115,0,0,0-85.11,110.89V807.38a166.17,166.17,0,0,0-109.46-41.07c-92,0-166.84,74.84-166.84,166.85S249.86,1100,341.85,1100,508.7,1025.15,508.7,933.16V306.93a57.48,57.48,0,0,1,42.56-55.45l344.09-92.06a57.39,57.39,0,0,1,72.24,55.44V669.24a166.08,166.08,0,0,0-109.44-41.08c-92,0-166.85,74.85-166.85,166.85s74.85,166.85,166.85,166.85S1025,887,1025,795V214.86a114,114,0,0,0-44.9-91.06" style="fill:#2f43de"/></svg>